# xmcd
#
# Track frame offsets:
#	150
#	30101
#	55654
#	87277
#	107362
#	136796
#	159183
#	183067
#	204914
#	255189
#	281079
#	310098
#	337506
#
# Disc length: 4760 seconds
#
# Revision: 1
# Processed by: cddbd v1.4PL0 Copyright (c) Steve Scherf et al.
# Submitted via: CDmax 1.9
#
DISCID=8812960d
DTITLE=Trouble Monkey - Monkey Sets Four Plus
DYEAR=2002
DGENRE=Blues
TTITLE0=Kansas City MDTS
TTITLE1=Stuff Ya Gotta Watch
TTITLE2=Werewolves Of London
TTITLE3=Ballin' The Jack
TTITLE4=Pack Fair N Square
TTITLE5=One More Song
TTITLE6=I'm Tired
TTITLE7=Ya Know, Yeah
TTITLE8=Red House
TTITLE9=You've Lost Your Good Thing Now
TTITLE10=Game Of Love
TTITLE11=Down So Long
TTITLE12=I Wonder Why
EXTD=
EXTT0=
EXTT1=
EXTT2=
EXTT3=
EXTT4=
EXTT5=
EXTT6=
EXTT7=
EXTT8=
EXTT9=
EXTT10=
EXTT11=
EXTT12=
PLAYORDER=
